<mxfile host="65bd71144e">
    <diagram id="BCvkenS-0BN31dQD9QgF" name="Page-1">
        <mxGraphModel dx="1439" dy="497" grid="1" gridSize="10" guides="1" tooltips="1" connect="1" arrows="1" fold="1" page="1" pageScale="1" pageWidth="850" pageHeight="1100" math="0" shadow="0">
            <root>
                <mxCell id="0"/>
                <mxCell id="1" parent="0"/>
                <mxCell id="3" value="" style="shape=flexArrow;endArrow=classic;html=1;" parent="1" edge="1">
                    <mxGeometry width="50" height="50" relative="1" as="geometry">
                        <mxPoint x="40" y="60" as="sourcePoint"/>
                        <mxPoint x="180" y="60" as="targetPoint"/>
                    </mxGeometry>
                </mxCell>
                <mxCell id="5" value="&lt;font style=&quot;font-size: 18px;&quot;&gt;new user 1&lt;/font&gt;" style="text;strokeColor=none;align=center;fillColor=none;html=1;verticalAlign=middle;whiteSpace=wrap;rounded=0;" parent="1" vertex="1">
                    <mxGeometry x="60" y="20" width="90" height="20" as="geometry"/>
                </mxCell>
                <mxCell id="6" value="" style="rounded=0;whiteSpace=wrap;html=1;fontSize=18;" parent="1" vertex="1">
                    <mxGeometry x="190" y="30" width="110" height="60" as="geometry"/>
                </mxCell>
                <mxCell id="17" style="edgeStyle=none;html=1;fontSize=18;fontColor=#050505;" parent="1" source="7" edge="1">
                    <mxGeometry relative="1" as="geometry">
                        <mxPoint x="360" y="120" as="targetPoint"/>
                    </mxGeometry>
                </mxCell>
                <mxCell id="7" value="uniqe id" style="text;strokeColor=none;align=center;fillColor=none;html=1;verticalAlign=middle;whiteSpace=wrap;rounded=0;fontSize=18;" parent="1" vertex="1">
                    <mxGeometry x="190" y="30" width="110" height="65" as="geometry"/>
                </mxCell>
                <mxCell id="8" value="" style="shape=flexArrow;endArrow=classic;html=1;" parent="1" edge="1">
                    <mxGeometry width="50" height="50" relative="1" as="geometry">
                        <mxPoint x="40" y="190" as="sourcePoint"/>
                        <mxPoint x="180" y="190" as="targetPoint"/>
                    </mxGeometry>
                </mxCell>
                <mxCell id="9" value="&lt;font style=&quot;font-size: 18px;&quot;&gt;new user 2&lt;/font&gt;" style="text;strokeColor=none;align=center;fillColor=none;html=1;verticalAlign=middle;whiteSpace=wrap;rounded=0;" parent="1" vertex="1">
                    <mxGeometry x="60" y="150" width="90" height="20" as="geometry"/>
                </mxCell>
                <mxCell id="10" value="" style="rounded=0;whiteSpace=wrap;html=1;fontSize=18;" parent="1" vertex="1">
                    <mxGeometry x="190" y="160" width="110" height="60" as="geometry"/>
                </mxCell>
                <mxCell id="18" style="edgeStyle=none;html=1;fontSize=18;fontColor=#050505;" parent="1" source="11" edge="1">
                    <mxGeometry relative="1" as="geometry">
                        <mxPoint x="360" y="140" as="targetPoint"/>
                    </mxGeometry>
                </mxCell>
                <mxCell id="11" value="uniqe id" style="text;strokeColor=none;align=center;fillColor=none;html=1;verticalAlign=middle;whiteSpace=wrap;rounded=0;fontSize=18;" parent="1" vertex="1">
                    <mxGeometry x="190" y="160" width="110" height="65" as="geometry"/>
                </mxCell>
                <mxCell id="14" value="" style="whiteSpace=wrap;html=1;aspect=fixed;fontSize=18;" parent="1" vertex="1">
                    <mxGeometry x="365" y="20" width="290" height="290" as="geometry"/>
                </mxCell>
                <mxCell id="15" value="chat" style="text;strokeColor=#6F0000;align=center;fillColor=#a20025;html=1;verticalAlign=middle;whiteSpace=wrap;rounded=0;fontSize=18;fontColor=#ffffff;" parent="1" vertex="1">
                    <mxGeometry x="485" y="10" width="60" height="30" as="geometry"/>
                </mxCell>
                <mxCell id="20" value="uniqe chat id" style="text;align=center;html=1;verticalAlign=middle;whiteSpace=wrap;rounded=0;fontSize=18;shadow=1;" parent="1" vertex="1">
                    <mxGeometry x="450" y="47.5" width="130" height="30" as="geometry"/>
                </mxCell>
                <mxCell id="31" style="edgeStyle=none;html=1;fontSize=36;fontColor=#050505;" parent="1" source="23" target="30" edge="1">
                    <mxGeometry relative="1" as="geometry"/>
                </mxCell>
                <mxCell id="23" value="last 4 degits from user id 1" style="text;align=center;html=1;verticalAlign=middle;whiteSpace=wrap;rounded=0;shadow=1;fontSize=18;" parent="1" vertex="1">
                    <mxGeometry x="368" y="85" width="115" height="30" as="geometry"/>
                </mxCell>
                <mxCell id="32" style="edgeStyle=none;html=1;fontSize=36;fontColor=#050505;" parent="1" source="25" target="30" edge="1">
                    <mxGeometry relative="1" as="geometry"/>
                </mxCell>
                <mxCell id="25" value="&lt;span style=&quot;color: rgb(240, 240, 240); font-family: Helvetica; font-size: 18px; font-style: normal; font-variant-ligatures: normal; font-variant-caps: normal; font-weight: 400; letter-spacing: normal; orphans: 2; text-indent: 0px; text-transform: none; widows: 2; word-spacing: 0px; -webkit-text-stroke-width: 0px; background-color: rgb(42, 37, 47); text-decoration-thickness: initial; text-decoration-style: initial; text-decoration-color: initial; float: none; display: inline !important;&quot;&gt;last 4 degits from user id 2&lt;/span&gt;" style="text;whiteSpace=wrap;html=1;fontSize=18;fontColor=#050505;align=center;" parent="1" vertex="1">
                    <mxGeometry x="540" y="75" width="120" height="50" as="geometry"/>
                </mxCell>
                <mxCell id="27" value="&lt;font style=&quot;font-size: 36px;&quot;&gt;+&lt;/font&gt;" style="text;align=center;html=1;verticalAlign=middle;whiteSpace=wrap;rounded=0;shadow=1;fontSize=18;" parent="1" vertex="1">
                    <mxGeometry x="480" y="85" width="60" height="30" as="geometry"/>
                </mxCell>
                <mxCell id="30" value="chat id from 8 num." style="text;align=center;html=1;verticalAlign=middle;whiteSpace=wrap;rounded=0;shadow=1;fontSize=36;" parent="1" vertex="1">
                    <mxGeometry x="410" y="170" width="200" height="70" as="geometry"/>
                </mxCell>
                <mxCell id="33" value="" style="shape=link;html=1;fontSize=36;fontColor=#050505;" parent="1" edge="1">
                    <mxGeometry width="100" relative="1" as="geometry">
                        <mxPoint x="-8" y="330" as="sourcePoint"/>
                        <mxPoint x="848" y="330" as="targetPoint"/>
                    </mxGeometry>
                </mxCell>
                <mxCell id="34" value="&lt;p style=&quot;line-height: 40%;&quot;&gt;&lt;font style=&quot;font-size: 18px;&quot;&gt;when click on friend get id friend and sender id and make chat id in sessionStorage(&quot;opened_chat&quot;)&lt;/font&gt;&lt;/p&gt;" style="text;align=center;html=1;verticalAlign=middle;whiteSpace=wrap;rounded=0;shadow=1;fontSize=36;" parent="1" vertex="1">
                    <mxGeometry x="280" y="345" width="280" height="60" as="geometry"/>
                </mxCell>
                <mxCell id="36" value="" style="endArrow=none;html=1;fontSize=18;fontColor=#050505;" parent="1" edge="1">
                    <mxGeometry width="50" height="50" relative="1" as="geometry">
                        <mxPoint x="280" y="425" as="sourcePoint"/>
                        <mxPoint x="560" y="325" as="targetPoint"/>
                        <Array as="points">
                            <mxPoint x="560" y="425"/>
                        </Array>
                    </mxGeometry>
                </mxCell>
                <mxCell id="37" value="" style="shape=link;html=1;fontSize=18;fontColor=#050505;" parent="1" edge="1">
                    <mxGeometry width="100" relative="1" as="geometry">
                        <mxPoint x="240" y="270" as="sourcePoint"/>
                        <mxPoint x="340" y="270" as="targetPoint"/>
                    </mxGeometry>
                </mxCell>
                <mxCell id="38" value="chick if this chat already exist in&amp;nbsp;&lt;span style=&quot;background-color: rgb(30, 30, 30); font-family: Consolas, &amp;quot;Courier New&amp;quot;, monospace;&quot;&gt;&lt;font style=&quot;font-size: 18px;&quot;&gt;chats to read messages&lt;/font&gt;&lt;/span&gt;" style="text;align=center;html=1;verticalAlign=middle;whiteSpace=wrap;rounded=0;shadow=1;fontSize=18;" parent="1" vertex="1">
                    <mxGeometry x="560" y="330" width="200" height="90" as="geometry"/>
                </mxCell>
                <mxCell id="39" value="" style="endArrow=none;html=1;fontSize=18;fontColor=#050505;" parent="1" edge="1">
                    <mxGeometry width="50" height="50" relative="1" as="geometry">
                        <mxPoint x="480" y="425" as="sourcePoint"/>
                        <mxPoint x="760" y="325" as="targetPoint"/>
                        <Array as="points">
                            <mxPoint x="760" y="425"/>
                        </Array>
                    </mxGeometry>
                </mxCell>
                <mxCell id="40" value="after login get all chats ids and get all chats messages in an object&amp;nbsp;" style="text;strokeColor=none;align=center;fillColor=none;html=1;verticalAlign=middle;whiteSpace=wrap;rounded=0;shadow=1;fontSize=18;fontColor=#f0f0f0;" parent="1" vertex="1">
                    <mxGeometry y="330" width="290" height="90" as="geometry"/>
                </mxCell>
                <mxCell id="41" value="" style="endArrow=none;html=1;fontSize=18;fontColor=#050505;" parent="1" edge="1">
                    <mxGeometry width="50" height="50" relative="1" as="geometry">
                        <mxPoint x="5" y="425" as="sourcePoint"/>
                        <mxPoint x="285" y="325" as="targetPoint"/>
                        <Array as="points">
                            <mxPoint x="285" y="425"/>
                        </Array>
                    </mxGeometry>
                </mxCell>
                <mxCell id="45" value="" style="shape=link;html=1;fontSize=18;fontColor=#f0f0f0;fillColor=#60a917;strokeColor=#2D7600;strokeWidth=2;" parent="1" edge="1">
                    <mxGeometry width="100" relative="1" as="geometry">
                        <mxPoint x="35" y="340" as="sourcePoint"/>
                        <mxPoint x="255" y="410" as="targetPoint"/>
                    </mxGeometry>
                </mxCell>
                <mxCell id="46" value="" style="shape=link;html=1;fontSize=18;fontColor=#f0f0f0;fillColor=#60a917;strokeColor=#2D7600;strokeWidth=2;" parent="1" edge="1">
                    <mxGeometry width="100" relative="1" as="geometry">
                        <mxPoint x="310" y="340" as="sourcePoint"/>
                        <mxPoint x="530" y="410" as="targetPoint"/>
                    </mxGeometry>
                </mxCell>
                <mxCell id="47" value="" style="shape=link;html=1;fontSize=18;fontColor=#f0f0f0;fillColor=#60a917;strokeColor=#2D7600;strokeWidth=2;" parent="1" edge="1">
                    <mxGeometry width="100" relative="1" as="geometry">
                        <mxPoint x="550" y="340" as="sourcePoint"/>
                        <mxPoint x="770" y="410" as="targetPoint"/>
                    </mxGeometry>
                </mxCell>
                <mxCell id="48" value="" style="endArrow=none;html=1;fontSize=18;fontColor=#050505;" parent="1" edge="1">
                    <mxGeometry width="50" height="50" relative="1" as="geometry">
                        <mxPoint x="5.000000000000227" y="530" as="sourcePoint"/>
                        <mxPoint x="285" y="430" as="targetPoint"/>
                        <Array as="points">
                            <mxPoint x="285" y="530"/>
                        </Array>
                    </mxGeometry>
                </mxCell>
            </root>
        </mxGraphModel>
    </diagram>
</mxfile>